<svg xmlns="http://www.w3.org/2000/svg" viewBox="0 0 256.54 78.89">
  <defs>
    <style>
      .cls-1 {
        fill: #62c1d0;
      }
    </style>
  </defs>
  <title>Ativo 2</title>
  <g id="Camada_2" data-name="Camada 2">
    <g id="Camada_1-2" data-name="Camada 1">
      <path class="cls-1" d="M48,48.34a20.62,20.62,0,0,0-3.44-6.11,26.88,26.88,0,0,0-5.11-4.74,52.88,52.88,0,0,0-6.05-3.76C32,33,30.94,32.41,30.25,32.07s-1.19-.62-1.47-.79a4.45,4.45,0,0,0-.57-.32,2.21,2.21,0,0,1-.47-.2l-1.09-.57c-.53-.28-1.35-.74-2.45-1.36-1.68-.91-3.16-1.77-4.44-2.61a19.58,19.58,0,0,1-3.18-2.5A8.77,8.77,0,0,1,14.7,21a7.14,7.14,0,0,1-.52-3.23A9.93,9.93,0,0,1,17,11.52c1.74-1.88,4.24-2.81,7.51-2.81A15.93,15.93,0,0,1,30,9.8a16.68,16.68,0,0,1,6.21,4.64l.11-.11a19.77,19.77,0,0,0,2.76-3.7,33.62,33.62,0,0,0,1.93-4A28.66,28.66,0,0,0,33.74,2,24.08,24.08,0,0,0,25,.05,26.31,26.31,0,0,0,14.14,1.46,21.56,21.56,0,0,0,6.83,5.94,18,18,0,0,0,2.61,12,22.86,22.86,0,0,0,.93,18Q-.3,30.09,10,36.13c1.18.69,2.1,1.25,2.77,1.67s1.25.77,1.77,1,1,.56,1.51.84l2,1.14c.83.49,1.93,1.09,3.28,1.83l5.28,2.86a15.46,15.46,0,0,1,7,7,13.39,13.39,0,0,1,1.25,8.18,11.1,11.1,0,0,1-4.12,6.68q-3.39,2.76-9.33,2.45a15.2,15.2,0,0,1-6.83-1.93,24.26,24.26,0,0,1-5.06-3.81,26.37,26.37,0,0,1-4.17-5.43,30.16,30.16,0,0,0-2.92,4A30.65,30.65,0,0,0,0,67.31a24.27,24.27,0,0,0,3.44,3.6,38.64,38.64,0,0,0,4.65,3.44,31.3,31.3,0,0,0,5.52,2.77,23.71,23.71,0,0,0,6.31,1.45A30.67,30.67,0,0,0,31,77.64,26.72,26.72,0,0,0,40.1,73.2a22.33,22.33,0,0,0,6.26-7.35A23.07,23.07,0,0,0,49,56.16,19.62,19.62,0,0,0,48,48.34Z"/>
      <path class="cls-1" d="M87.6,49.16A15.15,15.15,0,0,1,81,51.35q-4.44.63-12.26-.93v1.25a21.15,21.15,0,0,0,1.46,7.71,45.24,45.24,0,0,0,11.64.79,33.74,33.74,0,0,0,10.11-2.09,18.42,18.42,0,0,0,7.25-4.89,12.21,12.21,0,0,0,3-7.78,14.8,14.8,0,0,0-1.5-7.4A20.58,20.58,0,0,0,96,31.75,23.43,23.43,0,0,0,80.4,25.8,25.93,25.93,0,0,0,70,27.89a26.8,26.8,0,0,0-8.45,5.68A26.52,26.52,0,0,0,55.9,42,25.84,25.84,0,0,0,53.81,52.4,25.5,25.5,0,0,0,55.9,62.73,26.71,26.71,0,0,0,70,76.8,25.93,25.93,0,0,0,80.4,78.89a25.65,25.65,0,0,0,10-2,26.37,26.37,0,0,0,8.24-5.43L92.5,65.22A22.11,22.11,0,0,1,89,67.94a16.69,16.69,0,0,1-3.86,1.72,12.17,12.17,0,0,1-4.7.46A11.36,11.36,0,0,1,75,68.78a14.45,14.45,0,0,1-4.38-3.71,18.56,18.56,0,0,1-3-5.47,20.19,20.19,0,0,1-1.1-6.79,24.65,24.65,0,0,1,1-7.14A17.63,17.63,0,0,1,70.29,40a12.62,12.62,0,0,1,4.22-3.64A11.35,11.35,0,0,1,80,35.09a13.42,13.42,0,0,1,6,1.09,9.42,9.42,0,0,1,3.22,2.56,6.65,6.65,0,0,1,1.36,2.87,13.46,13.46,0,0,1,.27,1.93,10.62,10.62,0,0,1-.53,2.34A6.67,6.67,0,0,1,87.6,49.16Z"/>
      <path class="cls-1" d="M138.54,27.68a25.22,25.22,0,0,0-4.65-.41,25.53,25.53,0,0,0-10.31,2.08,26.75,26.75,0,0,0-14.09,14.13,25.91,25.91,0,0,0-2.08,10.28V77a25.94,25.94,0,0,0,12.73-3.13V53.76a21.35,21.35,0,0,1,1.09-6.89,18.62,18.62,0,0,1,3-5.63,14.52,14.52,0,0,1,4.39-3.8,10.53,10.53,0,0,1,5.3-1.42,12.61,12.61,0,0,1,5.44.84l3.54-7.93A23.63,23.63,0,0,0,138.54,27.68Z"/>
      <path class="cls-1" d="M175,27.68a25.11,25.11,0,0,0-4.64-.41,25.55,25.55,0,0,0-10.32,2.08A26.75,26.75,0,0,0,146,43.48a25.74,25.74,0,0,0-2.08,10.28V77a26.32,26.32,0,0,0,6.93-.84,26.65,26.65,0,0,0,5.8-2.29V53.76a21.35,21.35,0,0,1,1.09-6.89,18.85,18.85,0,0,1,3-5.63,14.41,14.41,0,0,1,4.39-3.8A10.52,10.52,0,0,1,170.4,36a12.61,12.61,0,0,1,5.43.84l3.54-7.93A23.86,23.86,0,0,0,175,27.68Z"/>
      <path class="cls-1" d="M191.1,28.88a28.43,28.43,0,0,0-5.79,2.35V77h2.51A28,28,0,0,0,198,74V28A25.5,25.5,0,0,0,191.1,28.88Zm5.69-20.44a7.08,7.08,0,0,0-5.12-2,7,7,0,0,0-7.09,7.1,7,7,0,0,0,2,5.11,6.73,6.73,0,0,0,5,2.09,7.12,7.12,0,0,0,7.2-7.2A6.82,6.82,0,0,0,196.79,8.44Z"/>
      <path class="cls-1" d="M250.23,43.52a6.31,6.31,0,0,0-6.31,6.31v2.36a27,27,0,0,1-.88,6.94,19.32,19.32,0,0,1-2.51,5.68,12.64,12.64,0,0,1-4,3.81,10.32,10.32,0,0,1-10.38,0,13,13,0,0,1-3.9-3.81,19.07,19.07,0,0,1-2.51-5.68,27,27,0,0,1-.88-6.94V49.83a6.32,6.32,0,0,0-6.31-6.31h-.1a6.32,6.32,0,0,0-6.31,6.31v2.36a27.83,27.83,0,0,0,1.88,10.32,26.19,26.19,0,0,0,5.21,8.4,24.81,24.81,0,0,0,36.19,0,26.37,26.37,0,0,0,5.21-8.4,28,28,0,0,0,1.88-10.32V49.83a6.32,6.32,0,0,0-6.31-6.31Z"/>
      <circle class="cls-1" cx="212.52" cy="33.67" r="6.4"/>
      <circle class="cls-1" cx="250.13" cy="33.67" r="6.4"/>
      <path class="cls-1" d="M71.42,60.79s1.7,8.91,11,8.4,9.19-10,9.19-10S88,61.5,81.49,61.71A33.4,33.4,0,0,1,71.42,60.79Z"/>
    </g>
  </g>
</svg>
