<svg id="Camada_1" data-name="Camada 1" xmlns="http://www.w3.org/2000/svg" viewBox="0 0 256.54 97.06">
  <defs>
    <style>
      .cls-1 {
        fill: #2c2277;
      }

      .cls-2 {
        fill: #62c1d0;
      }

      .cls-3 {
        fill: #848484;
      }
    </style>
  </defs>
  <title>serriu_logo</title>
  <g>
    <g>
      <path class="cls-1" d="M61.43,146.58A20.75,20.75,0,0,0,58,140.47a26.88,26.88,0,0,0-5.11-4.74A54.32,54.32,0,0,0,46.83,132c-1.39-.76-2.43-1.32-3.12-1.66s-1.19-.62-1.47-.79a3.16,3.16,0,0,0-.57-.31,3.17,3.17,0,0,1-.47-.21l-1.09-.57c-.53-.28-1.35-.74-2.45-1.36-1.68-.91-3.16-1.77-4.44-2.6A20.15,20.15,0,0,1,30,122a8.77,8.77,0,0,1-1.88-2.71,7.12,7.12,0,0,1-.52-3.23,10,10,0,0,1,2.82-6.26C32.2,107.88,34.7,107,38,107A15.93,15.93,0,0,1,43.44,108a16.68,16.68,0,0,1,6.21,4.64l.11-.11a20,20,0,0,0,2.76-3.69,33.76,33.76,0,0,0,1.93-4,28.94,28.94,0,0,0-7.25-4.59,24.08,24.08,0,0,0-8.71-2A26.48,26.48,0,0,0,27.6,99.7a21.42,21.42,0,0,0-7.31,4.49,17.91,17.91,0,0,0-4.22,6,23.08,23.08,0,0,0-1.68,6c-.82,8.08,2.2,14.11,9.08,18.15,1.18.69,2.1,1.25,2.77,1.67s1.25.77,1.77,1.05,1,.55,1.51.83l2,1.14c.83.49,1.93,1.09,3.28,1.83l5.28,2.86a15.46,15.46,0,0,1,7,7,13.4,13.4,0,0,1,1.25,8.18,11.1,11.1,0,0,1-4.12,6.68q-3.39,2.76-9.33,2.45A15.2,15.2,0,0,1,28,166.13a24.59,24.59,0,0,1-5.06-3.8,26.64,26.64,0,0,1-4.17-5.43,29.38,29.38,0,0,0-2.92,4,30.65,30.65,0,0,0-2.4,4.64,24.27,24.27,0,0,0,3.44,3.6,38.64,38.64,0,0,0,4.65,3.44,31.3,31.3,0,0,0,5.52,2.77,23.33,23.33,0,0,0,6.31,1.45,30.67,30.67,0,0,0,11.1-.93,26.72,26.72,0,0,0,9.08-4.44,22.3,22.3,0,0,0,6.26-7.34,23.16,23.16,0,0,0,2.65-9.7A19.65,19.65,0,0,0,61.43,146.58Z" transform="translate(-13.46 -98.24)"/>
      <path class="cls-1" d="M101.06,147.4a15,15,0,0,1-6.62,2.2c-3,.41-7,.11-12.26-.94v1.25a21.07,21.07,0,0,0,1.46,7.71,45.24,45.24,0,0,0,11.64.79,33.74,33.74,0,0,0,10.11-2.08,18.55,18.55,0,0,0,7.25-4.9,12.18,12.18,0,0,0,3-7.77,14.83,14.83,0,0,0-1.5-7.41,20.7,20.7,0,0,0-4.69-6.26,23.26,23.26,0,0,0-7-4.32A23,23,0,0,0,93.86,124a26.1,26.1,0,0,0-10.37,2.09,26.46,26.46,0,0,0-14.13,14.13,25.84,25.84,0,0,0-2.09,10.38A25.47,25.47,0,0,0,69.36,161,26.62,26.62,0,0,0,83.49,175a26.53,26.53,0,0,0,20.38.11,26.37,26.37,0,0,0,8.24-5.43L106,163.47a22,22,0,0,1-3.54,2.71,16.69,16.69,0,0,1-3.86,1.72,12.17,12.17,0,0,1-4.7.46A11.36,11.36,0,0,1,88.44,167a14.45,14.45,0,0,1-4.38-3.71,18.44,18.44,0,0,1-3-5.47,20.15,20.15,0,0,1-1.1-6.79,24.69,24.69,0,0,1,1-7.14,17.47,17.47,0,0,1,2.77-5.62A12.54,12.54,0,0,1,88,134.64a11.47,11.47,0,0,1,5.48-1.31,13.42,13.42,0,0,1,6,1.09,9.42,9.42,0,0,1,3.22,2.56,6.76,6.76,0,0,1,1.36,2.87,13.64,13.64,0,0,1,.27,1.93,10.62,10.62,0,0,1-.53,2.34A6.67,6.67,0,0,1,101.06,147.4Z" transform="translate(-13.46 -98.24)"/>
      <path class="cls-2" d="M152,125.92a25.22,25.22,0,0,0-4.65-.41A25.53,25.53,0,0,0,137,127.59,26.75,26.75,0,0,0,123,141.72,25.91,25.91,0,0,0,120.87,152v23.25a26.26,26.26,0,0,0,6.93-.84,26,26,0,0,0,5.8-2.29V152a21.35,21.35,0,0,1,1.09-6.89,18.57,18.57,0,0,1,3-5.62,14.56,14.56,0,0,1,4.39-3.81,10.53,10.53,0,0,1,5.3-1.42,12.61,12.61,0,0,1,5.44.84l3.54-7.93A23.63,23.63,0,0,0,152,125.92Z" transform="translate(-13.46 -98.24)"/>
      <path class="cls-2" d="M188.5,125.92a25.11,25.11,0,0,0-4.64-.41,25.55,25.55,0,0,0-10.32,2.08,26.75,26.75,0,0,0-14.09,14.13A25.74,25.74,0,0,0,157.37,152v23.25a25.94,25.94,0,0,0,12.73-3.13V152a21.35,21.35,0,0,1,1.09-6.89,18.79,18.79,0,0,1,3-5.62,14.44,14.44,0,0,1,4.39-3.81,10.52,10.52,0,0,1,5.31-1.42,12.61,12.61,0,0,1,5.43.84l3.54-7.93A23.86,23.86,0,0,0,188.5,125.92Z" transform="translate(-13.46 -98.24)"/>
      <path class="cls-2" d="M204.56,127.12a29,29,0,0,0-5.79,2.35v45.78h2.51a27.85,27.85,0,0,0,10.22-3v-46A25.52,25.52,0,0,0,204.56,127.12Zm5.69-20.44a7.11,7.11,0,0,0-5.12-2,7,7,0,0,0-7.09,7.09,7,7,0,0,0,2,5.11,6.73,6.73,0,0,0,5,2.09,7.12,7.12,0,0,0,7.2-7.2A6.83,6.83,0,0,0,210.25,106.68Z" transform="translate(-13.46 -98.24)"/>
      <path class="cls-2" d="M263.69,141.77a6.3,6.3,0,0,0-6.31,6.31v2.35a27,27,0,0,1-.88,6.94,19.32,19.32,0,0,1-2.51,5.68,12.64,12.64,0,0,1-4,3.81,10.26,10.26,0,0,1-10.38,0,13,13,0,0,1-3.9-3.81,19.07,19.07,0,0,1-2.51-5.68,27,27,0,0,1-.88-6.94v-2.35a6.31,6.31,0,0,0-6.31-6.31h-.1a6.31,6.31,0,0,0-6.31,6.31v2.35a27.83,27.83,0,0,0,1.88,10.32,26.19,26.19,0,0,0,5.21,8.4,24.78,24.78,0,0,0,36.19,0,26.37,26.37,0,0,0,5.21-8.4A28,28,0,0,0,270,150.43v-2.35a6.31,6.31,0,0,0-6.31-6.31Z" transform="translate(-13.46 -98.24)"/>
    </g>
    <circle class="cls-1" cx="212.52" cy="33.67" r="6.4"/>
    <circle class="cls-1" cx="250.13" cy="33.67" r="6.4"/>
    <path class="cls-2" d="M84.88,159s1.7,8.91,11,8.4,9.19-10,9.19-10S101.47,159.74,95,160A33,33,0,0,1,84.88,159Z" transform="translate(-13.46 -98.24)"/>
  </g>
  <g>
    <path class="cls-1" d="M67.41,188.21a2.66,2.66,0,0,0-2.22-1.08,2.41,2.41,0,0,0-2.06,1,4.68,4.68,0,0,0,0,5,2.4,2.4,0,0,0,2.06,1A2.58,2.58,0,0,0,67.44,193l.91.85A3.55,3.55,0,0,1,67,194.9a4,4,0,0,1-1.8.4,3.91,3.91,0,0,1-2.28-.68,4.06,4.06,0,0,1-1.43-1.73,6,6,0,0,1-.18-4.06,5,5,0,0,1,.79-1.48,3.62,3.62,0,0,1,1.31-1,4,4,0,0,1,1.77-.39,4.16,4.16,0,0,1,1.8.39,3.66,3.66,0,0,1,1.36,1.1Z" transform="translate(-13.46 -98.24)"/>
    <path class="cls-1" d="M75.77,195.23H69.89v-9.14l1.25-.1v8.07h4.71Z" transform="translate(-13.46 -98.24)"/>
    <path class="cls-1" d="M78.28,185.22h-1l1.3-1.24H80Zm.45.77-1.25.1v9.14h1.25Z" transform="translate(-13.46 -98.24)"/>
    <path class="cls-1" d="M87.87,195.23H86.62a3.64,3.64,0,0,1-1.52-1.55,35.63,35.63,0,0,1-1.82-3.24c-.65-1.29-1.14-2.19-1.46-2.68v7.47H80.59V186h1.23a3.29,3.29,0,0,1,1.07,1.19,21.4,21.4,0,0,1,1.22,2.12c.38.76.81,1.58,1.29,2.45a14,14,0,0,0,1.22,1.95v-7.61l1.25-.1Z" transform="translate(-13.46 -98.24)"/>
    <path class="cls-1" d="M91,195.23H89.73v-9.14L91,186Z" transform="translate(-13.46 -98.24)"/>
    <path class="cls-1" d="M98.93,188.21a2.65,2.65,0,0,0-2.22-1.08,2.43,2.43,0,0,0-2.06,1,4.68,4.68,0,0,0,0,5,2.41,2.41,0,0,0,2.06,1A2.61,2.61,0,0,0,99,193l.91.85a3.55,3.55,0,0,1-1.35,1.1,4,4,0,0,1-1.81.4,3.91,3.91,0,0,1-2.28-.68A4,4,0,0,1,93,192.89a5.58,5.58,0,0,1-.46-2.29,5.47,5.47,0,0,1,.28-1.77,4.76,4.76,0,0,1,.78-1.48,3.62,3.62,0,0,1,1.31-1,4,4,0,0,1,1.77-.39,4.13,4.13,0,0,1,1.8.39,3.69,3.69,0,0,1,1.37,1.1Z" transform="translate(-13.46 -98.24)"/>
    <path class="cls-1" d="M107.52,195.23a18.2,18.2,0,0,0-.55-2.51h-4.35a19.93,19.93,0,0,0-.56,2.51h-1.24a30.56,30.56,0,0,1,3.33-9.24h1.29a30.56,30.56,0,0,1,3.33,9.24Zm-.92-3.67a37.66,37.66,0,0,0-1.8-4.28,35.54,35.54,0,0,0-1.81,4.28Z" transform="translate(-13.46 -98.24)"/>
    <path class="cls-1" d="M114.7,187.5a5,5,0,0,0-1.81-.39,2,2,0,0,0-1.21.38,1.17,1.17,0,0,0-.51,1,1.06,1.06,0,0,0,.4.84,6,6,0,0,0,1.49.76,4.74,4.74,0,0,1,1.83,1.1,2.13,2.13,0,0,1,.59,1.5,2.61,2.61,0,0,1-.28,1.24,2,2,0,0,1-.75.83,3.49,3.49,0,0,1-1,.44,5.15,5.15,0,0,1-1.21.14,5,5,0,0,1-1.35-.19,3.8,3.8,0,0,1-1.14-.47l.29-1.2a3.46,3.46,0,0,0,1,.43,4.78,4.78,0,0,0,1.16.17,2.36,2.36,0,0,0,1.53-.4,1.36,1.36,0,0,0,.49-1.09,1.08,1.08,0,0,0-.54-.88,7.45,7.45,0,0,0-1.66-.78q-2.16-.78-2.16-2.46a2.13,2.13,0,0,1,.92-1.85,3.55,3.55,0,0,1,2.12-.65,5.47,5.47,0,0,1,2.14.46Z" transform="translate(-13.46 -98.24)"/>
    <path class="cls-1" d="M128.06,192.9a4.11,4.11,0,0,1-1.42,1.73,3.89,3.89,0,0,1-2.26.67,4.1,4.1,0,0,1-1.8-.39,3.62,3.62,0,0,1-1.32-1,4.93,4.93,0,0,1-.78-1.49,5.75,5.75,0,0,1-.27-1.77,5.69,5.69,0,0,1,.27-1.76,4.81,4.81,0,0,1,.78-1.49,3.58,3.58,0,0,1,1.32-1,4.1,4.1,0,0,1,1.8-.39,3.82,3.82,0,0,1,2.26.67,4,4,0,0,1,1.42,1.71,5.39,5.39,0,0,1,.47,2.29A5.47,5.47,0,0,1,128.06,192.9Zm-5.76-4.79a4.13,4.13,0,0,0-.72,2.5,4.06,4.06,0,0,0,.73,2.49,2.41,2.41,0,0,0,2.06,1,2.38,2.38,0,0,0,2.06-1,4.06,4.06,0,0,0,.74-2.48,4.14,4.14,0,0,0-.73-2.5,2.42,2.42,0,0,0-2.07-1A2.45,2.45,0,0,0,122.3,188.11Z" transform="translate(-13.46 -98.24)"/>
    <path class="cls-1" d="M135.61,187.28a4.83,4.83,0,0,1,1.16,3.27,5.66,5.66,0,0,1-.29,1.8,4.89,4.89,0,0,1-.82,1.51,3.78,3.78,0,0,1-1.34,1,4.17,4.17,0,0,1-1.81.39,10.68,10.68,0,0,1-2.69-.35v-8.73a10.87,10.87,0,0,1,2.7-.29A3.85,3.85,0,0,1,135.61,187.28Zm-1,5.78a4,4,0,0,0,.76-2.51,3.73,3.73,0,0,0-.79-2.44,2.61,2.61,0,0,0-2.14-1,6.07,6.07,0,0,0-1.41.16v6.52a4.09,4.09,0,0,0,1.41.23A2.58,2.58,0,0,0,134.65,193.06Z" transform="translate(-13.46 -98.24)"/>
    <path class="cls-1" d="M145.51,192.9a4.14,4.14,0,0,1-1.43,1.73,3.86,3.86,0,0,1-2.25.67,4.06,4.06,0,0,1-1.8-.39,3.62,3.62,0,0,1-1.32-1,4.93,4.93,0,0,1-.78-1.49,5.75,5.75,0,0,1-.27-1.77,5.69,5.69,0,0,1,.27-1.76,4.81,4.81,0,0,1,.78-1.49,3.58,3.58,0,0,1,1.32-1,4.06,4.06,0,0,1,1.8-.39,3.79,3.79,0,0,1,2.25.67,4,4,0,0,1,1.43,1.71,5.55,5.55,0,0,1,.47,2.29A5.63,5.63,0,0,1,145.51,192.9Zm-5.76-4.79a4.14,4.14,0,0,0-.73,2.5,4.07,4.07,0,0,0,.74,2.49,2.63,2.63,0,0,0,4.12,0,4.05,4.05,0,0,0,.73-2.48,4.13,4.13,0,0,0-.72-2.5,2.45,2.45,0,0,0-2.07-1A2.42,2.42,0,0,0,139.75,188.11Z" transform="translate(-13.46 -98.24)"/>
    <path class="cls-1" d="M154.55,195.23H153.3a3.7,3.7,0,0,1-1.52-1.55,35.82,35.82,0,0,1-1.81-3.24c-.66-1.29-1.15-2.19-1.47-2.68l0,7.47h-1.25V186h1.23a3.38,3.38,0,0,1,1.08,1.19,23.56,23.56,0,0,1,1.21,2.12c.38.76.81,1.58,1.29,2.45a15.07,15.07,0,0,0,1.22,1.95v-7.61l1.25-.1Z" transform="translate(-13.46 -98.24)"/>
    <path class="cls-1" d="M159.54,187.05v8.18H158.3v-8.18h-2.55l.1-1.06h6.2l-.1,1.06Z" transform="translate(-13.46 -98.24)"/>
    <path class="cls-1" d="M170.35,192.9a4.11,4.11,0,0,1-1.42,1.73,3.91,3.91,0,0,1-2.26.67,4.1,4.1,0,0,1-1.8-.39,3.62,3.62,0,0,1-1.32-1,4.93,4.93,0,0,1-.78-1.49,5.75,5.75,0,0,1-.27-1.77,5.69,5.69,0,0,1,.27-1.76,4.81,4.81,0,0,1,.78-1.49,3.58,3.58,0,0,1,1.32-1,4.1,4.1,0,0,1,1.8-.39,3.84,3.84,0,0,1,2.26.67,4,4,0,0,1,1.42,1.71,5.39,5.39,0,0,1,.47,2.29A5.47,5.47,0,0,1,170.35,192.9Zm-5.76-4.79a4.14,4.14,0,0,0-.73,2.5,4.07,4.07,0,0,0,.74,2.49,2.63,2.63,0,0,0,4.12,0,4.05,4.05,0,0,0,.73-2.48,4.13,4.13,0,0,0-.72-2.5,2.45,2.45,0,0,0-2.07-1A2.42,2.42,0,0,0,164.59,188.11Z" transform="translate(-13.46 -98.24)"/>
    <path class="cls-1" d="M178,195.23h-5.88v-9.14l1.25-.1v8.07h4.71Z" transform="translate(-13.46 -98.24)"/>
    <path class="cls-1" d="M186.13,192.9a4.19,4.19,0,0,1-1.42,1.73,3.91,3.91,0,0,1-2.26.67,4.06,4.06,0,0,1-1.8-.39,3.62,3.62,0,0,1-1.32-1,4.93,4.93,0,0,1-.78-1.49,5.75,5.75,0,0,1-.27-1.77,5.69,5.69,0,0,1,.27-1.76,4.81,4.81,0,0,1,.78-1.49,3.58,3.58,0,0,1,1.32-1,4.06,4.06,0,0,1,1.8-.39,3.84,3.84,0,0,1,2.26.67,4.07,4.07,0,0,1,1.42,1.71,5.55,5.55,0,0,1,.47,2.29A5.63,5.63,0,0,1,186.13,192.9Zm-5.76-4.79a4.14,4.14,0,0,0-.73,2.5,4.07,4.07,0,0,0,.74,2.49,2.63,2.63,0,0,0,4.12,0,4.05,4.05,0,0,0,.73-2.48,4.13,4.13,0,0,0-.72-2.5,2.45,2.45,0,0,0-2.07-1A2.42,2.42,0,0,0,180.37,188.11Zm3.94-4.13h-1.38l-1.31,1.24h1Z" transform="translate(-13.46 -98.24)"/>
    <path class="cls-1" d="M194.8,190.45v3.35a3.55,3.55,0,0,1-1.35,1.1,4,4,0,0,1-1.81.4,3.92,3.92,0,0,1-2.27-.67,4,4,0,0,1-1.42-1.72,5.79,5.79,0,0,1-.46-2.3,5.63,5.63,0,0,1,.47-2.3,4,4,0,0,1,1.43-1.71,3.8,3.8,0,0,1,2.24-.67,4.17,4.17,0,0,1,1.81.39,3.74,3.74,0,0,1,1.36,1.1l-1,.79a2.59,2.59,0,0,0-2.19-1.08,2.45,2.45,0,0,0-2.08,1,4.63,4.63,0,0,0,0,5,2.42,2.42,0,0,0,2.06,1,2.63,2.63,0,0,0,2-.82v-2.72Z" transform="translate(-13.46 -98.24)"/>
    <path class="cls-1" d="M197.92,195.23h-1.25v-9.14l1.25-.1Z" transform="translate(-13.46 -98.24)"/>
    <path class="cls-1" d="M205.87,188.21a2.64,2.64,0,0,0-2.21-1.08,2.41,2.41,0,0,0-2.06,1,4.63,4.63,0,0,0,0,5,2.4,2.4,0,0,0,2.06,1,2.61,2.61,0,0,0,2.25-1.14l.91.85a3.55,3.55,0,0,1-1.35,1.1,4,4,0,0,1-1.8.4,3.89,3.89,0,0,1-2.28-.68,4,4,0,0,1-1.43-1.73,5.84,5.84,0,0,1-.18-4.06,4.78,4.78,0,0,1,.79-1.48,3.59,3.59,0,0,1,1.3-1,4,4,0,0,1,1.77-.39,4.17,4.17,0,0,1,1.81.39,3.66,3.66,0,0,1,1.36,1.1Z" transform="translate(-13.46 -98.24)"/>
    <path class="cls-1" d="M214.46,195.23a18.2,18.2,0,0,0-.55-2.51h-4.35a18.2,18.2,0,0,0-.55,2.51h-1.25a30.56,30.56,0,0,1,3.33-9.24h1.29a30.56,30.56,0,0,1,3.33,9.24Zm-.92-3.67a37.66,37.66,0,0,0-1.8-4.28,37.23,37.23,0,0,0-1.81,4.28Z" transform="translate(-13.46 -98.24)"/>
    <path class="cls-1" d="M221.64,187.5a5,5,0,0,0-1.81-.39,2,2,0,0,0-1.21.38,1.16,1.16,0,0,0-.5,1,1,1,0,0,0,.4.84,5.87,5.87,0,0,0,1.48.76,4.74,4.74,0,0,1,1.83,1.1,2.09,2.09,0,0,1,.59,1.5,2.73,2.73,0,0,1-.27,1.24,2.11,2.11,0,0,1-.76.83,3.54,3.54,0,0,1-1,.44,5.21,5.21,0,0,1-1.21.14,5.06,5.06,0,0,1-1.36-.19,3.8,3.8,0,0,1-1.14-.47l.29-1.2a3.42,3.42,0,0,0,1,.43,4.71,4.71,0,0,0,1.16.17,2.39,2.39,0,0,0,1.53-.4,1.35,1.35,0,0,0,.48-1.09,1.08,1.08,0,0,0-.54-.88,7.56,7.56,0,0,0-1.65-.78q-2.16-.78-2.16-2.46a2.13,2.13,0,0,1,.91-1.85,3.58,3.58,0,0,1,2.12-.65,5.52,5.52,0,0,1,2.15.46Z" transform="translate(-13.46 -98.24)"/>
  </g>
  <rect class="cls-3" x="213.52" y="91.12" width="43.02" height="0.54"/>
  <rect class="cls-3" y="91.12" width="43.02" height="0.54"/>
</svg>
