<svg id="power" xmlns="http://www.w3.org/2000/svg" width="512" height="512" viewBox="0 0 512 512">
  <path id="Caminho_1" data-name="Caminho 1" d="M256,0C163.842,0,82.581,49.466,37.439,123.2A253.7,253.7,0,0,0,0,256C0,396.7,115.3,512,256,512S512,396.7,512,256,396.7,0,256,0Z" fill="#fb5a4e"/>
  <path id="Caminho_2" data-name="Caminho 2" d="M512,256c0,140.7-115.3,256-256,256V0C396.7,0,512,115.3,512,256Z" fill="#f21100"/>
  <g id="Grupo_1" data-name="Grupo 1">
    <path id="Caminho_3" data-name="Caminho 3" d="M436,256c0,99.3-80.7,180-180,180S76,355.3,76,256a179.755,179.755,0,0,1,36-108,29.978,29.978,0,0,1,24-12,29.526,29.526,0,0,1,18,6,30.086,30.086,0,0,1,6,42,120,120,0,1,0,192,0,30.124,30.124,0,0,1,6-42,29.526,29.526,0,0,1,18-6,29.98,29.98,0,0,1,24,12A179.749,179.749,0,0,1,436,256Z" fill="#cae8f9"/>
    <path id="Caminho_4" data-name="Caminho 4" d="M286,106V256a30,30,0,0,1-60,0V106a30,30,0,0,1,60,0Z" fill="#cae8f9"/>
  </g>
  <g id="Grupo_2" data-name="Grupo 2">
    <path id="Caminho_5" data-name="Caminho 5" d="M256,286V76a30.088,30.088,0,0,1,30,30V256A30.088,30.088,0,0,1,256,286Z" fill="#b7e0f6"/>
    <path id="Caminho_6" data-name="Caminho 6" d="M436,256c0,99.3-80.7,180-180,180V376a120,120,0,0,0,96-192,30.124,30.124,0,0,1,6-42,29.526,29.526,0,0,1,18-6,29.98,29.98,0,0,1,24,12A179.749,179.749,0,0,1,436,256Z" fill="#b7e0f6"/>
  </g>
</svg>
