<svg id="information" xmlns="http://www.w3.org/2000/svg" width="330" height="330" viewBox="0 0 330 330">
  <path id="Path_17" data-name="Path 17" d="M165,0C74.019,0,0,74.02,0,165S74.019,330,165,330s165-74.018,165-165S255.981,0,165,0Zm0,300C90.56,300,30,239.44,30,165S90.56,30,165,30,300,90.562,300,165,239.439,300,165,300Z" fill="#3699ff"/>
  <path id="Path_18" data-name="Path 18" d="M165,70a20,20,0,1,0,20,20.009A20.025,20.025,0,0,0,165,70Z" fill="#3699ff"/>
  <path id="Path_19" data-name="Path 19" d="M165,140a15,15,0,0,0-15,15v90a15,15,0,0,0,30,0V155A15,15,0,0,0,165,140Z" fill="#3699ff"/>
</svg>
